<svg width="24" height="24" viewBox="0 0 24 24" fill="none" xmlns="http://www.w3.org/2000/svg">
<path fill-rule="evenodd" clip-rule="evenodd" d="M24 3.75C24 3.55109 23.921 3.36032 23.7803 3.21967C23.6397 3.07902 23.4489 3 23.25 3H21C20.8327 3.00005 20.6702 3.05603 20.5384 3.15904C20.4066 3.26205 20.313 3.40618 20.2725 3.5685L19.665 6H2.25C2.13608 6.00003 2.02366 6.02602 1.92128 6.07598C1.81889 6.12594 1.72924 6.19857 1.65912 6.28836C1.58899 6.37814 1.54025 6.48272 1.51658 6.59416C1.4929 6.7056 1.49493 6.82096 1.5225 6.9315L3.7725 15.9315C3.81299 16.0938 3.90658 16.238 4.0384 16.341C4.17022 16.444 4.3327 16.5 4.5 16.5H18C18.1673 16.5 18.3298 16.444 18.4616 16.341C18.5934 16.238 18.687 16.0938 18.7275 15.9315L21.585 4.5H23.25C23.4489 4.5 23.6397 4.42098 23.7803 4.28033C23.921 4.13968 24 3.94891 24 3.75ZM19.29 7.5L18.54 10.5H16.5V7.5H19.29ZM15 7.5V10.5H12V7.5H15ZM10.5 7.5V10.5H7.5V7.5H10.5ZM6 7.5V10.5H3.96L3.21 7.5H6ZM4.335 12H6V15H5.085L4.335 12ZM7.5 12H10.5V15H7.5V12ZM12 12H15V15H12V12ZM16.5 12H18.165L17.415 15H16.5V12ZM16.5 19.5C16.8978 19.5 17.2794 19.658 17.5607 19.9393C17.842 20.2206 18 20.6022 18 21C18 21.3978 17.842 21.7794 17.5607 22.0607C17.2794 22.342 16.8978 22.5 16.5 22.5C16.1022 22.5 15.7206 22.342 15.4393 22.0607C15.158 21.7794 15 21.3978 15 21C15 20.6022 15.158 20.2206 15.4393 19.9393C15.7206 19.658 16.1022 19.5 16.5 19.5ZM19.5 21C19.5 20.2044 19.1839 19.4413 18.6213 18.8787C18.0587 18.3161 17.2956 18 16.5 18C15.7044 18 14.9413 18.3161 14.3787 18.8787C13.8161 19.4413 13.5 20.2044 13.5 21C13.5 21.7956 13.8161 22.5587 14.3787 23.1213C14.9413 23.6839 15.7044 24 16.5 24C17.2956 24 18.0587 23.6839 18.6213 23.1213C19.1839 22.5587 19.5 21.7956 19.5 21ZM6 19.5C6.39783 19.5 6.77936 19.658 7.06066 19.9393C7.34196 20.2206 7.5 20.6022 7.5 21C7.5 21.3978 7.34196 21.7794 7.06066 22.0607C6.77936 22.342 6.39783 22.5 6 22.5C5.60217 22.5 5.22064 22.342 4.93934 22.0607C4.65804 21.7794 4.5 21.3978 4.5 21C4.5 20.6022 4.65804 20.2206 4.93934 19.9393C5.22064 19.658 5.60217 19.5 6 19.5ZM9 21C9 20.2044 8.68393 19.4413 8.12132 18.8787C7.55871 18.3161 6.79565 18 6 18C5.20435 18 4.44129 18.3161 3.87868 18.8787C3.31607 19.4413 3 20.2044 3 21C3 21.7956 3.31607 22.5587 3.87868 23.1213C4.44129 23.6839 5.20435 24 6 24C6.79565 24 7.55871 23.6839 8.12132 23.1213C8.68393 22.5587 9 21.7956 9 21Z" fill="white"/>
</svg>
