<svg width="29" height="26" viewBox="0 0 29 26" fill="none" xmlns="http://www.w3.org/2000/svg">
<path d="M27.7539 7.59766C28.3633 9.73047 28.3633 14.3008 28.3633 14.3008C28.3633 14.3008 28.3633 18.8203 27.7539 21.0039C27.4492 22.2227 26.4844 23.1367 25.3164 23.4414C23.1328 24 14.5 24 14.5 24C14.5 24 5.81641 24 3.63281 23.4414C2.46484 23.1367 1.5 22.2227 1.19531 21.0039C0.585938 18.8203 0.585938 14.3008 0.585938 14.3008C0.585938 14.3008 0.585938 9.73047 1.19531 7.59766C1.5 6.37891 2.46484 5.41406 3.63281 5.10938C5.81641 4.5 14.5 4.5 14.5 4.5C14.5 4.5 23.1328 4.5 25.3164 5.10938C26.4844 5.41406 27.4492 6.37891 27.7539 7.59766ZM11.6562 18.4141L18.8672 14.3008L11.6562 10.1875V18.4141Z" fill="#4E75FF"/>
</svg>
