<?xml version="1.0" encoding="UTF-8"?>
<svg id="Layer_1_Image" data-name="Layer 1 Image" xmlns="http://www.w3.org/2000/svg" viewBox="0 0 808.28 154.19">
  <path d="M0,13.91H43.9c.58,15.2-.07,29.82,1.24,44.75,8.12-15.47,16.25-30.93,24.5-46.65,1,0,2.02-.22,2.91,.03,13.07,3.64,26.12,7.35,40.09,11.3-8.09,14.62-15.74,28.45-23.61,42.68,9.04,15.18,18.04,30.32,27.54,46.27-14.83,3.9-28.71,7.55-43.09,11.34-9.52-15.93-18.89-31.61-28.26-47.28-.34,.09-.69,.17-1.03,.26v43.27c-5.22,1.01-10.02,.38-14.75,.49-4.99,.11-9.98,.05-14.97,.02-4.82-.03-9.65-.1-14.47-.15V13.91Z"/>
  <path d="M593.27,0c-2.74,10.05-1.92,20.34-1.94,30.56-.06,23.84-.02,47.68-.01,71.51,0,1.99-.03,3.98,.08,5.96,.33,5.89,1.79,7.72,7.45,9.58,.45,.15,.86,.46,1.32,.71-2.95,1.37-19.08,1.63-25.74,.3,.41-2.32,.89-4.66,1.22-7.03,.31-2.27,.47-4.56,.02-7.02-.33,.66-.69,1.31-.98,1.98-5.39,12.52-16.74,15.98-28.24,14.49-1.97-.26-3.93-.71-5.85-1.23-9.6-2.63-15.5-9.29-19.26-18.02-2.38-5.52-3.34-11.36-3.21-17.44,.15-6.78-.04-13.51,2.33-20.08,4.56-12.67,13.44-20.61,26.2-24.46,5.6-1.69,11.33-2.52,17.22-2.26,3.79,.17,7.6,.03,11.06,.03,.54-.67,.92-.92,.92-1.18,.1-8.59,.46-17.19,.11-25.77-.18-4.49-2.13-8.4-7.74-8.73-.68-.04-1.29-1.23-1.94-1.89,8.99,0,17.98,0,26.97,0Zm-17.38,40.04c-2.13-.4-4.05-1.08-5.95-1.04-3.8,.07-7.6,.47-11.39,.85-7.01,.69-12.66,4.01-16.84,9.49-4.48,5.88-7.43,12.57-8.2,19.95-.65,6.22-1.01,12.49-1.01,18.74,0,8.11,2.46,15.56,7.21,22.26,7.49,10.56,22.89,10.72,30.4,.18,3.95-5.55,5.96-11.89,6.06-18.59,.23-16.19,.09-32.39,.08-48.59,0-.81-.17-1.63-.36-3.25Z"/>
  <path d="M258.76,40.83c4.39-1.58,22.22-1.65,26.74-.25-.44,2.66-.88,5.37-1.46,8.86,1.81-1.72,3.13-2.91,4.37-4.16,6.08-6.13,13.54-7.77,21.89-6.93,22.6,2.28,31.64,20.81,32.42,37.75,.4,8.67-.23,17.18-3.88,25.26-6.55,14.48-20.05,22.27-35.76,20.78-7.58-.72-13.77-4.61-18.74-11.44-.28,1.54-.61,2.53-.62,3.51-.02,8.11,0,16.23,.03,24.34,0,.83,.03,1.66,.08,2.48,.37,5.65,3.71,8.55,9.36,9.36q-2.22,1.74-10.85,1.72c-3.83,0-7.66-.01-11.48-.02-3.78,0-7.57,0-11.35,0-.08-.33-.17-.66-.25-.99,.55-.39,1.04-.93,1.66-1.15,5.71-1.99,7.56-4.37,7.66-10.68,.12-8.11,.04-16.23,.04-24.34,0-5.76,0-11.52,0-18.53-1.1,1.67-1.51,2.31-1.94,2.95-9.02,13.53-22.15,20.45-37.97,21.73-14.27,1.15-25.81-4.94-34.62-16.16-5.49-6.99-8.41-14.97-9.22-23.72-.2-2.11,.1-4.29,.32-6.41,.26-2.44,.7-4.87,1.13-7.7h-56.86c-.43,1.31-1.2,2.66-1.28,4.05-.78,12.99,.97,25.47,8.41,36.56,7.55,11.24,21.23,15.59,33.81,10.56,4.1-1.64,7.77-4.33,11.65-6.53,1.08-.61,2.16-1.22,3.54-1.99,.36,2.96-1.59,3.94-3.06,5.07-6.28,4.84-13.7,6.81-21.39,7.37-12.32,.89-23.8-1.78-33.74-9.52-8.75-6.81-13.43-15.97-14.44-26.74-.5-5.35-.14-10.97,.93-16.25,3.66-18.07,20.22-29.75,36.9-31.2,6.61-.57,12.87-.12,19.05,2.04,7.95,2.78,13.67,8.01,17.21,15.6,.28,.6,.5,1.23,.77,1.83,.26,.58,.54,1.15,1.19,2.54,1.3-1.89,2.28-3.3,3.24-4.72,6.74-9.96,16.07-16.06,27.82-18.64,9.02-1.98,24.34,2.17,30.41,12.84-17.15,10.21-34.33,20.44-51.35,30.57,0,1.04-.16,1.6,.02,2,5.68,12.33,13.65,22.62,26.08,28.97,14.3,7.31,27.58,1.9,35.98-8.57,5.13-6.39,7.93-13.56,7.5-22.02-.42-8.26-.09-16.55-.09-24.83,0-.66,0-1.32,0-1.99-.07-8.51-1.5-10.54-9.85-13.26Zm24.93,39.41c0,6.28,.37,12.59-.11,18.83-.4,5.28,1.48,9.53,4.82,13.03,5.47,5.74,11.85,9.43,20.4,7.08,10.3-2.84,14.85-10.62,17.43-19.88,2.32-8.32,2.82-16.94,2.18-25.54-.5-6.76-1.75-13.49-4.72-19.64-6.17-12.79-18.86-17.15-29.59-10.47-6.39,3.98-11.1,9.26-10.5,17.77,.44,6.25,.09,12.55,.09,18.83Zm-109.67-15.18c1.18-7.75-3.58-18.13-9.87-21.6-4.72-2.61-9.56-3.91-15.26-3.06-8.95,1.34-18.86,14.44-18.99,24.65h44.12Zm62.67-9.36c-3.4-4.16-6.45-7.59-10.37-10.11-5.24-3.38-10.88-3.53-16.76-1.92-12.72,3.47-18.91,20.79-11.07,34.7,12.62-7.49,25.22-14.96,38.19-22.66Z"/>
  <path d="M420.35,13.78c1.81,12.01,3.48,23.07,5.24,34.76-1.85,.43-3.49,.99-5.17,1.18-6.84,.77-13.35,2.23-19.11,6.38-10.54,7.59-9.78,21.07,1.65,27.07,5.1,2.68,10.55,3.93,16.27,4.15,2.45,.09,4.9,.02,7.83,.02-1.16,12.13-2.25,23.55-3.39,35.35-5.23,1-10.03,.7-14.76,.42-4.79-.28-9.6-.89-14.28-1.91-15.22-3.34-27.65-10.98-36.34-24.13-3.44-5.2-5.61-10.95-6.33-17.07-1.61-13.7-1.02-27.14,6.63-39.32,6.43-10.24,15.82-16.81,26.98-21.03,7.98-3.02,16.28-4.55,24.81-4.94,3.08-.14,6.16-.56,9.97-.93Z"/>
  <path d="M765.94,117.21c-.99,.37-1.97,.79-2.98,1.1-2.22,.67-4.56,1.04-6.66,1.95-7.2,3.12-10.12,8.25-8.99,15.3,1.19,7.43,7.06,13.56,13.83,14.4,9.74,1.21,18.08-2.39,25.37-8.2,4.09-3.26,7.51-7.49,10.73-11.66,2.89-3.74,4-8.27,3.76-13.11-.38-7.88-5.18-12.04-12.91-10.27-5.97,1.37-11.7,3.76-17.62,5.4-6.71,1.86-13.44,3.81-20.29,4.93-4.9,.8-9.62-.52-12.45-5.37-2.9-4.98-1.85-9.52,1.39-13.86,.67-.89,1.44-1.71,2.66-3.13-11.04-.91-18.43-6.52-24.33-15.76-.13,2.18-.28,3.56-.28,4.93,0,7.45,0,14.9,.06,22.35,.02,3.74,.89,7.2,3.57,10.07,1.79,.69,3.58,1.37,5.37,2.06-.05,.24-.1,.47-.15,.71h-32.75c-.06-.22-.11-.44-.17-.66,.69-.33,1.35-.85,2.07-.96,4.69-.68,6.14-4.03,6.81-8.03,.14-.81,.12-1.65,.12-2.48,0-16.72-.01-33.45,0-50.17,0-4.13-1.39-7.84-3.73-11.13-3.89-5.47-11.66-7.56-18.37-5.13-5.36,1.94-9.54,5.48-12.55,10.16-1.27,1.98-2.07,4.62-2.09,6.97-.16,16.56-.04,33.12-.06,49.67,0,3.5,1.22,6.44,3.61,8.98,1.79,.69,3.57,1.38,5.35,2.08-.05,.24-.11,.47-.16,.71h-32.81c-.06-.21-.12-.42-.18-.63,.53-.29,1.02-.73,1.59-.85,5.74-1.16,7.32-5.49,7.37-10.37,.16-18.71,.15-37.42,.03-56.13-.04-6.11-1.98-8.26-8.07-10.32-.42-.14-.77-.5-2.25-1.5,9.67-1.11,18.25-.46,27.45-.56-.65,3.73-1.18,6.72-1.7,9.72,3.09-2.62,5.86-5.48,9.11-7.61,5.31-3.48,11.36-4.39,17.64-3.58,2.63,.34,5.3,.62,7.84,1.3,8.01,2.15,13.35,7.13,15.61,15.19,.26,.92,.57,1.81,1.01,3.19,7.1-14.51,18.44-21.77,34.87-21.39,.14-2.74,.32-5.15,.39-7.56,.11-3.79,1.13-7.14,4.14-9.73,4.68-4.01,9.15-2.97,11.78,2.94-.87,6.78-6.61,6.19-11.22,7.04-2.21,1.92-2.92,4.1-1.92,7.25,1.13,.39,2.48,.9,3.86,1.33,9.72,3.05,16.74,12.43,17.64,22.55,1.69,19.01-11.59,31.39-25.91,34.3-1.95,.4-3.89,.84-5.77,1.25q-3.01,3.04-2.94,7.06c2.65,2.27,5.86,2.74,9.21,1.85,9.79-2.6,19.55-5.34,29.32-8.02,3.68-1.01,7.33-2.18,11.06-2.96,9.28-1.94,16.38,3.76,16.99,13.23,.96,14.96-5.96,26.34-17.1,35.16-11.07,8.77-23.92,13.53-38.41,12.94-6.29-.26-11.46-2.44-14.2-8.35-2.7-5.82-2.48-11.59,1.69-16.79,1.33-1.67,2.74-3.54,4.55-4.51,5.69-3.04,11.56-5.75,17.42-8.46,1-.46,2.3-.29,3.46-.41,.11,.53,.22,1.06,.33,1.59Zm-25.73-77.38c-3.21-.29-6.24,1.01-8.84,3.22-5.3,4.49-6.91,10.4-5.75,17,.6,3.4,1.55,6.83,2.97,9.96,4,8.84,9.54,16.42,19.43,19.36,2.4,.71,5.31,.75,7.75,.13,8.34-2.11,11.41-9.54,10.89-16.91-.79-11.26-5.62-21.03-14.75-28.23-3.29-2.6-6.98-4.5-11.7-4.53Z"/>
  <path d="M476.49,37.58c17.84-.34,30.96,7.43,38.02,23.64,5.27,12.1,4.15,24.69-1.34,36.64-7.23,15.73-19.77,23.38-37.17,23.54-11.69,.11-22.1-3.24-30.53-11.22-7.02-6.64-11.68-14.79-12.1-24.81-.38-9.01,.06-17.79,4.58-26.03,7.62-13.88,19.4-20.85,35.05-21.75,1.16-.07,2.33,0,3.49,0Zm-28.73,38.72c.98,6.33,1.55,12.76,3.07,18.97,1.7,6.97,5.16,13.2,10.48,18.27,8.78,8.37,26.3,8.21,33.34-3.98,3.63-6.29,5.96-12.8,6.94-19.94,2.13-15.57-.3-30.05-10.64-42.37-5.14-6.13-11.82-9.34-20.28-7.57-9.53,1.99-15.39,7.99-18.87,16.63-2.57,6.36-3.92,12.97-4.04,19.99Z"/>
  <path d="M637,119.13h-32.66c-.06-.25-.13-.5-.19-.75,1.62-.6,3.23-1.21,5.17-1.94,2.5-2.25,3.86-5.31,3.86-8.98,0-18.7,.07-37.39-.03-56.09-.04-6.38-1.8-8.38-8.25-10.68-.38-.14-.65-.57-1.03-.92,3.74-1.46,21.51-1.58,25.84-.26-2.84,21.06-.81,42.22-1.41,63.31-.05,1.82-.04,3.64,.08,5.46,.37,5.63,1.8,7.42,7.21,9.24,.58,.2,1.1,.57,1.65,.86-.07,.25-.14,.5-.21,.75Z"/>
  <path d="M630.1,13.48c-2.04,7.44-5.16,10.11-10.74,9.37-4.55-.6-8.16-4.76-8-9.24,.18-5.1,3.63-9.17,8.21-9.69,5.52-.62,8.62,2.14,10.53,9.56Z"/>
</svg>