<svg width="16" height="16" viewBox="0 0 16 16" fill="none" xmlns="http://www.w3.org/2000/svg">
<g clip-path="url(#clip0_1715_17900)">
<path fill-rule="evenodd" clip-rule="evenodd" d="M11.5 2.00055C11.303 2.00055 11.108 2.03935 10.926 2.11473C10.744 2.19012 10.5786 2.30061 10.4393 2.43989C10.3001 2.57918 10.1896 2.74454 10.1142 2.92653C10.0388 3.10852 10 3.30357 10 3.50055C10 3.69754 10.0388 3.89259 10.1142 4.07458C10.1896 4.25657 10.3001 4.42193 10.4393 4.56121C10.5786 4.7005 10.744 4.81099 10.926 4.88637C11.108 4.96176 11.303 5.00055 11.5 5.00055C11.8978 5.00055 12.2794 4.84252 12.5607 4.56121C12.842 4.27991 13 3.89838 13 3.50055C13 3.10273 12.842 2.7212 12.5607 2.43989C12.2794 2.15859 11.8978 2.00055 11.5 2.00055ZM9.05 3.00055C9.16476 2.43541 9.47136 1.92732 9.91787 1.56236C10.3644 1.19741 10.9233 0.998047 11.5 0.998047C12.0767 0.998047 12.6356 1.19741 13.0821 1.56236C13.5286 1.92732 13.8352 2.43541 13.95 3.00055H16V4.00055H13.95C13.8352 4.5657 13.5286 5.07379 13.0821 5.43874C12.6356 5.80369 12.0767 6.00306 11.5 6.00306C10.9233 6.00306 10.3644 5.80369 9.91787 5.43874C9.47136 5.07379 9.16476 4.5657 9.05 4.00055H0V3.00055H9.05ZM4.5 7.00055C4.10218 7.00055 3.72064 7.15859 3.43934 7.43989C3.15804 7.7212 3 8.10273 3 8.50055C3 8.89838 3.15804 9.27991 3.43934 9.56121C3.72064 9.84252 4.10218 10.0006 4.5 10.0006C4.89782 10.0006 5.27936 9.84252 5.56066 9.56121C5.84196 9.27991 6 8.89838 6 8.50055C6 8.10273 5.84196 7.7212 5.56066 7.43989C5.27936 7.15859 4.89782 7.00055 4.5 7.00055ZM2.05 8.00055C2.16476 7.43541 2.47136 6.92732 2.91787 6.56236C3.36438 6.19741 3.92332 5.99805 4.5 5.99805C5.07668 5.99805 5.63562 6.19741 6.08213 6.56236C6.52864 6.92732 6.83524 7.43541 6.95 8.00055H16V9.00055H6.95C6.83524 9.5657 6.52864 10.0738 6.08213 10.4387C5.63562 10.8037 5.07668 11.0031 4.5 11.0031C3.92332 11.0031 3.36438 10.8037 2.91787 10.4387C2.47136 10.0738 2.16476 9.5657 2.05 9.00055H0V8.00055H2.05ZM11.5 12.0006C11.1022 12.0006 10.7206 12.1586 10.4393 12.4399C10.158 12.7212 10 13.1027 10 13.5006C10 13.8984 10.158 14.2799 10.4393 14.5612C10.7206 14.8425 11.1022 15.0006 11.5 15.0006C11.8978 15.0006 12.2794 14.8425 12.5607 14.5612C12.842 14.2799 13 13.8984 13 13.5006C13 13.1027 12.842 12.7212 12.5607 12.4399C12.2794 12.1586 11.8978 12.0006 11.5 12.0006ZM9.05 13.0006C9.16476 12.4354 9.47136 11.9273 9.91787 11.5624C10.3644 11.1974 10.9233 10.998 11.5 10.998C12.0767 10.998 12.6356 11.1974 13.0821 11.5624C13.5286 11.9273 13.8352 12.4354 13.95 13.0006H16V14.0006H13.95C13.8352 14.5657 13.5286 15.0738 13.0821 15.4387C12.6356 15.8037 12.0767 16.0031 11.5 16.0031C10.9233 16.0031 10.3644 15.8037 9.91787 15.4387C9.47136 15.0738 9.16476 14.5657 9.05 14.0006H0V13.0006H9.05Z" fill="#212529"/>
</g>
<defs>
<clipPath id="clip0_1715_17900">
<rect width="16" height="16" fill="white"/>
</clipPath>
</defs>
</svg>
