<svg width="16" height="16" viewBox="0 0 16 16" fill="none" xmlns="http://www.w3.org/2000/svg">
<path d="M11.5341 7.00051H15.4661C15.5136 7.00053 15.5601 7.01408 15.6002 7.03958C15.6403 7.06508 15.6723 7.10147 15.6924 7.14449C15.7125 7.18751 15.72 7.23538 15.7139 7.28249C15.7079 7.3296 15.6885 7.37401 15.6581 7.41051L13.6921 9.77051C13.6686 9.79865 13.6393 9.82128 13.6061 9.83682C13.5729 9.85235 13.5367 9.8604 13.5001 9.8604C13.4635 9.8604 13.4273 9.85235 13.3941 9.83682C13.3609 9.82128 13.3315 9.79865 13.3081 9.77051L11.3421 7.41051C11.3117 7.37401 11.2923 7.3296 11.2862 7.28249C11.2802 7.23538 11.2876 7.18751 11.3078 7.14449C11.3279 7.10147 11.3599 7.06508 11.4 7.03958C11.4401 7.01408 11.4866 7.00053 11.5341 7.00051V7.00051ZM0.534086 9.00051H4.46609C4.51359 9.00049 4.56011 8.98694 4.60019 8.96144C4.64027 8.93595 4.67225 8.89956 4.6924 8.85654C4.71254 8.81352 4.72002 8.76565 4.71394 8.71853C4.70786 8.67142 4.68849 8.62701 4.65809 8.59051L2.69209 6.23051C2.66862 6.20238 2.63926 6.17974 2.60609 6.16421C2.57291 6.14868 2.53672 6.14062 2.50009 6.14062C2.46345 6.14062 2.42727 6.14868 2.39409 6.16421C2.36091 6.17974 2.33155 6.20238 2.30809 6.23051L0.342086 8.59051C0.311684 8.62701 0.29231 8.67142 0.286234 8.71853C0.280157 8.76565 0.287629 8.81352 0.307775 8.85654C0.327921 8.89956 0.359907 8.93595 0.399987 8.96144C0.440067 8.98694 0.486583 9.00049 0.534086 9.00051V9.00051Z" fill="#212529"/>
<path fill-rule="evenodd" clip-rule="evenodd" d="M8.00001 2.99974C6.44801 2.99974 5.06001 3.70674 4.14301 4.81774C4.10206 4.87082 4.05086 4.91512 3.99245 4.948C3.93404 4.98089 3.86961 5.0017 3.803 5.00919C3.73638 5.01668 3.66895 5.0107 3.60469 4.9916C3.54043 4.9725 3.48068 4.94068 3.42897 4.89803C3.37726 4.85537 3.33465 4.80275 3.30368 4.7433C3.27272 4.68385 3.25402 4.61878 3.24871 4.55195C3.24339 4.48513 3.25157 4.41792 3.27275 4.35432C3.29394 4.29073 3.32769 4.23204 3.37201 4.18174C4.1042 3.29527 5.0756 2.63776 6.17067 2.2874C7.26575 1.93704 8.43841 1.90859 9.54918 2.20543C10.66 2.50227 11.6621 3.11191 12.4364 3.96183C13.2107 4.81175 13.7246 5.8662 13.917 6.99974H12.9C12.6691 5.87055 12.0554 4.85574 11.1625 4.12689C10.2697 3.39804 9.15256 2.99989 8.00001 2.99974V2.99974ZM3.10001 8.99974C3.28932 9.92437 3.73636 10.7766 4.38949 11.4579C5.04261 12.1392 5.87517 12.6218 6.79097 12.85C7.70677 13.0782 8.66845 13.0427 9.5649 12.7475C10.4613 12.4522 11.256 11.9094 11.857 11.1817C11.898 11.1287 11.9492 11.0844 12.0076 11.0515C12.066 11.0186 12.1304 10.9978 12.197 10.9903C12.2636 10.9828 12.3311 10.9888 12.3953 11.0079C12.4596 11.027 12.5193 11.0588 12.5711 11.1015C12.6228 11.1441 12.6654 11.1967 12.6963 11.2562C12.7273 11.3156 12.746 11.3807 12.7513 11.4475C12.7566 11.5144 12.7484 11.5816 12.7273 11.6452C12.7061 11.7088 12.6723 11.7675 12.628 11.8177C11.8958 12.7042 10.9244 13.3617 9.82934 13.7121C8.73427 14.0624 7.56161 14.0909 6.45083 13.7941C5.34006 13.4972 4.33791 12.8876 3.5636 12.0377C2.78928 11.1877 2.27538 10.1333 2.08301 8.99974H3.10001Z" fill="#212529"/>
</svg>
