<svg width="424" height="256" viewBox="0 0 424 256" fill="none" xmlns="http://www.w3.org/2000/svg">
<rect width="424" height="256" fill="#212529"/>
<path d="M169.359 198.812V203.094C171.703 202.953 174.047 202.734 176.266 202.406L176.578 205.312C170.266 206.516 163.516 206.578 158.547 206.594L158.078 203.375C160.219 203.375 162.734 203.359 165.391 203.281V198.812H169.359ZM158.641 196.688C162.938 195.547 165.031 192.891 165.297 190H159.547V186.781H165.391V183.688H169.359V186.781H175.234V190H169.422C169.688 192.75 171.812 195.328 176.109 196.375L174.297 199.469C170.969 198.625 168.672 196.781 167.375 194.422C166.141 196.906 163.875 198.828 160.516 199.688L158.641 196.688ZM177.891 211.938V183.438H181.859V211.938H177.891ZM210.203 183.438V211.875H206.422V197.594H203.672V210.5H200.016V183.906H203.672V194.406H206.422V183.438H210.203ZM186.422 205.438V186.719H197.016V189.938H190.422V202.094C193.172 202.047 195.609 201.891 198.359 201.406L198.641 204.656C195.172 205.312 192.141 205.422 188.391 205.438H186.422ZM229.953 209.312C224.984 209.312 221.422 206.578 221.328 202.625H226.078C226.156 204.312 227.797 205.422 229.984 205.438C232.234 205.422 233.844 204.172 233.828 202.344C233.844 200.5 232.203 199.203 229.547 199.188H227.453V195.719H229.547C231.781 195.719 233.344 194.5 233.328 192.719C233.344 190.984 232.016 189.797 230.016 189.812C228.016 189.797 226.375 190.922 226.297 192.656H221.797C221.875 188.766 225.375 186.062 230.016 186.062C234.734 186.062 237.875 188.859 237.859 192.438C237.875 194.969 236.109 196.766 233.578 197.219V197.406C236.906 197.812 238.734 199.828 238.703 202.656C238.734 206.531 235.062 209.312 229.953 209.312ZM267.078 198.031V201.156H256.359V205.75H252.422V201.156H241.047V198.031H267.078ZM244.109 211.375V203.5H248.047V208.188H264.203V211.375H244.109ZM244.391 196.031V184.344H248.328V187.312H259.734V184.344H263.703V196.031H244.391ZM248.328 192.875H259.734V190.281H248.328V192.875Z" fill="white"/>
<path d="M174.932 115C174.932 105.059 182.991 97 192.932 97H232.396C240.68 97 247.396 103.716 247.396 112V134C247.396 145.598 237.994 155 226.396 155H198.932C185.677 155 174.932 144.255 174.932 131V115Z" fill="white"/>
<rect width="19.5477" height="92.479" rx="9.77387" transform="matrix(0.997125 0.075776 -0.0835235 0.996506 233.053 46.3945)" fill="white"/>
<rect x="205.988" y="39.5" width="21.9037" height="68" rx="10.9518" fill="white" stroke="#212529" stroke-width="3"/>
<rect x="-1.59065" y="-1.41274" width="21.7833" height="60.2884" rx="10.8917" transform="matrix(0.998417 -0.0562462 0.0620142 0.998075 182.368 47.9645)" fill="white" stroke="#212529" stroke-width="3"/>
<rect x="185.434" y="97" width="46.209" height="22" fill="white"/>
<rect x="-2.10529" y="0.513137" width="19.1199" height="43.1549" rx="9.55997" transform="matrix(0.537995 -0.842948 0.86553 0.500856 169.583 111.772)" fill="white" stroke="#212529" stroke-width="3"/>
<rect x="-2.06896" y="0.617522" width="24.0443" height="49.3235" rx="11.5" transform="matrix(0.491089 -0.871109 0.888215 0.459428 198.649 122.672)" fill="white" stroke="#212529" stroke-width="3"/>
<path d="M223.242 131.752L247.988 126L248.448 127.836C251.373 139.502 244.248 151.166 232.534 153.889V153.889C230.582 154.342 228.604 153.134 228.116 151.19L223.242 131.752Z" fill="white"/>
</svg>