<svg width="424" height="256" viewBox="0 0 424 256" fill="none" xmlns="http://www.w3.org/2000/svg">
<rect width="424" height="256" fill="#212529"/>
<path d="M175.047 209H170.328V190.844H170.203L165.016 194.094V189.938L170.609 186.375H175.047V209ZM205.359 201.156H194.641V205.75H190.703V201.156H179.328V198.031H205.359V201.156ZM202.484 211.375H182.391V203.5H186.328V208.188H202.484V211.375ZM186.609 187.312H198.016V184.344H201.984V196.031H182.672V184.344H186.609V187.312ZM198.016 192.875V190.281H186.609V192.875H198.016ZM238.922 211.875H235.078V197.656H232.422V210.5H228.672V183.906H232.422V194.438H235.078V183.438H238.922V211.875ZM219.547 201.453C222.193 201.38 224.703 201.115 227.078 200.656L227.484 204.094C224.214 204.656 220.88 204.938 217.484 204.938H215.547V186.594H219.547V201.453ZM251.266 185.125C252.755 185.125 254.099 185.422 255.297 186.016C256.495 186.609 257.432 187.438 258.109 188.5C258.797 189.552 259.141 190.75 259.141 192.094C259.141 193.229 258.891 194.271 258.391 195.219C257.901 196.156 257.208 196.943 256.312 197.578C255.417 198.203 254.391 198.635 253.234 198.875V202.688C255.714 202.562 258.089 202.344 260.359 202.031L260.672 204.906C257.88 205.427 255.031 205.766 252.125 205.922C249.219 206.078 246.057 206.156 242.641 206.156L242.172 202.938C244.766 202.938 247.13 202.911 249.266 202.859V198.859C248.109 198.62 247.083 198.188 246.188 197.562C245.302 196.927 244.609 196.141 244.109 195.203C243.609 194.266 243.359 193.229 243.359 192.094C243.359 190.75 243.703 189.552 244.391 188.5C245.078 187.438 246.021 186.609 247.219 186.016C248.427 185.422 249.776 185.125 251.266 185.125ZM251.266 188.531C250.505 188.531 249.823 188.672 249.219 188.953C248.625 189.234 248.156 189.646 247.812 190.188C247.479 190.719 247.318 191.354 247.328 192.094C247.318 192.812 247.479 193.443 247.812 193.984C248.156 194.526 248.63 194.943 249.234 195.234C249.839 195.516 250.516 195.656 251.266 195.656C252.026 195.656 252.708 195.516 253.312 195.234C253.917 194.943 254.391 194.531 254.734 194C255.078 193.458 255.255 192.823 255.266 192.094C255.255 191.354 255.073 190.719 254.719 190.188C254.375 189.646 253.901 189.234 253.297 188.953C252.703 188.672 252.026 188.531 251.266 188.531ZM265.953 211.938H261.984V183.438H265.953V211.938Z" fill="white"/>
<path d="M169 97.2832H231.516C239.8 97.2832 246.516 103.999 246.516 112.283V143.561C246.516 149.636 241.591 154.561 235.516 154.561H193C179.745 154.561 169 143.816 169 130.561V97.2832Z" fill="white"/>
<rect x="227.634" y="39" width="18.8821" height="92.4489" rx="9.44106" fill="white"/>
<rect x="206.258" y="67.6465" width="20.8883" height="59.2732" rx="10.4442" fill="white" stroke="#212529" stroke-width="3"/>
<rect x="-1.80037" y="-1.11189" width="21.8933" height="45.3312" rx="10.9467" transform="matrix(0.972601 -0.232482 0.227649 0.973743 223.863 98.2124)" fill="white" stroke="#212529" stroke-width="3"/>
<rect x="186.382" y="70.6602" width="20.8883" height="60.2781" rx="10.4442" fill="white" stroke="#212529" stroke-width="3"/>
<rect x="167.5" y="76.6895" width="18.9007" height="48.2195" rx="9.45037" fill="white" stroke="#212529" stroke-width="3"/>
<path d="M225.956 132.041L249.518 126.289L250.306 129.588C252.899 140.446 246.209 151.393 235.365 154.041V154.041C233.196 154.57 231.017 153.239 230.499 151.068L225.956 132.041Z" fill="white"/>
</svg>
